<?xml version="1.0" encoding="utf-8"?>
<!-- Generator: Adobe Illustrator 19.2.1, SVG Export Plug-In . SVG Version: 6.00 Build 0)  -->
<svg version="1.1" id="レイヤー_1" xmlns="http://www.w3.org/2000/svg" xmlns:xlink="http://www.w3.org/1999/xlink" x="0px"
	 y="0px" viewBox="0 0 348.1 41.9" style="enable-background:new 0 0 348.1 41.9;" xml:space="preserve">
<style type="text/css">
	.st0{fill:none;stroke:#A61A2B;stroke-width:2;stroke-miterlimit:10;}
	.st1{fill:#BF493B;}
	.st2{fill:#3A3A3A;}
	.st3{fill:#A61A2B;}
</style>
<g>
	<polygon class="st0" points="339.9,40.8 206,40.9 213.1,1 346.9,1.2 	"/>
	<g>
		<path class="st1" d="M17.3,2.1c0.7,0,1.2,0.5,1.2,1.2s-0.6,1.2-1.2,1.2h-6.8v34.4c0,0.7-0.6,1.2-1.2,1.2c-0.6,0-1.2-0.5-1.2-1.2
			V4.5H1.2C0.6,4.5,0,4,0,3.3s0.6-1.2,1.2-1.2C1.2,2.1,17.3,2.1,17.3,2.1z"/>
		<path class="st1" d="M23.6,38.7V3.3c0-0.7,0.5-1.2,1.2-1.2h12.4c0.7,0,1.2,0.5,1.2,1.2s-0.5,1.2-1.2,1.2H25.9v14.7h10
			c0.7,0,1.2,0.5,1.2,1.2s-0.5,1.2-1.2,1.2h-10v15.9h11.2c0.7,0,1.2,0.5,1.2,1.2s-0.5,1.2-1.2,1.2H24.8
			C24.1,39.8,23.6,39.3,23.6,38.7z"/>
		<path class="st1" d="M43.1,31.5v-21c0-3.9,2.6-7.3,6.4-8.3c3.8-1.1,7.7,0.6,9.6,4c0.4,0.6,0.2,1.3-0.4,1.7
			c-0.6,0.3-1.3,0.1-1.6-0.4c-1.4-2.5-4.3-3.6-7-2.9s-4.6,3.2-4.6,6v21c0,2.8,1.9,5.3,4.6,6s5.6-0.4,7-2.9c0.3-0.6,1.1-0.7,1.6-0.4
			c0.6,0.4,0.8,1.1,0.4,1.7c-1.9,3.3-5.9,5-9.6,4C45.7,38.8,43.1,35.4,43.1,31.5z"/>
		<path class="st1" d="M78.8,19.2V3c0-0.7,0.6-1.2,1.2-1.2c0.7,0,1.2,0.5,1.2,1.2v35.9c0,0.7-0.6,1.2-1.2,1.2s-1.2-0.5-1.2-1.2V21.5
			H66.4v17.4c0,0.7-0.6,1.2-1.2,1.2S64,39.6,64,38.9V3c0-0.7,0.6-1.2,1.2-1.2c0.7,0,1.2,0.5,1.2,1.2v16.1L78.8,19.2L78.8,19.2z"/>
		<path class="st2" d="M90.2,10.3c0,1-0.8,1.8-1.9,1.8c-1,0-1.8-0.8-1.8-1.8s0.8-1.8,1.8-1.8C89.4,8.5,90.2,9.4,90.2,10.3z
			 M88.4,35.6c-1,0-1.8-0.8-1.8-1.8s0.8-1.8,1.8-1.8c1.1,0,1.9,0.8,1.9,1.8S89.4,35.6,88.4,35.6z"/>
		<path class="st2" d="M100.9,10.3c0,1-0.8,1.8-1.9,1.8c-1,0-1.8-0.8-1.8-1.8S98,8.5,99,8.5C100.1,8.5,100.9,9.4,100.9,10.3z
			 M99,35.6c-1,0-1.8-0.8-1.8-1.8S98,32,99,32c1.1,0,1.9,0.8,1.9,1.8S100.1,35.6,99,35.6z"/>
		<path class="st2" d="M106.7,31.5v-21c0-3.9,2.6-7.3,6.4-8.3c3.8-1.1,7.7,0.6,9.6,4c0.4,0.6,0.2,1.3-0.4,1.7
			c-0.6,0.3-1.3,0.1-1.6-0.4c-1.4-2.5-4.3-3.6-7-2.9s-4.6,3.2-4.6,6v21c0,2.8,1.9,5.3,4.6,6c2.7,0.7,5.6-0.4,7-2.9
			c0.3-0.6,1.1-0.7,1.6-0.4c0.6,0.4,0.8,1.1,0.4,1.7c-1.9,3.3-5.9,5-9.6,4C109.3,38.8,106.7,35.4,106.7,31.5z"/>
		<path class="st2" d="M148.2,38.6c0.2,0.6-0.2,1.3-0.8,1.5c-0.6,0.1-1.3-0.2-1.5-0.9c0,0-0.9-3.3-2.1-7.8h-13.3
			c-1.2,4.5-2.2,7.8-2.2,7.8c-0.1,0.6-0.8,1-1.4,0.9c-0.6-0.2-1-0.9-0.9-1.5l9.9-35.9c0.2-0.5,0.6-0.9,1.2-0.9c0.6,0,1,0.4,1.1,0.9
			L148.2,38.6z M143.1,29.1c-2.2-7.8-4.9-17.8-5.9-21.6c-1.1,3.8-3.8,13.8-5.9,21.6H143.1z"/>
		<path class="st2" d="M153,38.9V3c0-0.6,0.4-1.1,0.9-1.2s1.1,0.2,1.3,0.7c0,0,7.1,15.1,8.8,18.7c1.7-3.6,8.8-18.7,8.8-18.7
			c0.2-0.5,0.8-0.8,1.4-0.7c0.6,0.1,0.9,0.6,0.9,1.2v35.9c0,0.7-0.6,1.2-1.2,1.2c-0.7,0-1.2-0.5-1.2-1.2c0,0,0-22.8,0-30.5
			c-2.7,5.7-7.7,16.2-7.7,16.2c-0.2,0.4-0.6,0.7-1.1,0.7s-0.9-0.2-1.1-0.7c0,0-4.9-10.5-7.6-16.2c0,7.7,0,30.5,0,30.5
			c0,0.7-0.6,1.2-1.2,1.2C153.5,40.1,153,39.6,153,38.9z"/>
		<path class="st2" d="M182.6,2.1h7.4c4.8,0,8.6,3.8,8.6,8.6v3.5c0,4.8-3.8,8.6-8.6,8.6h-6.2v16.1c0,0.7-0.5,1.2-1.2,1.2
			s-1.2-0.5-1.2-1.2V3.3C181.5,2.6,182,2.1,182.6,2.1z M190.1,4.5h-6.2v15.9h6.2c3.5,0,6.2-2.8,6.2-6.2v-3.5
			C196.3,7.3,193.5,4.5,190.1,4.5z"/>
	</g>
	<g>
		<path class="st3" d="M221.2,22.7l-2.1,9.9h13.2l-0.5,2.7h-17.2L220.3,8h16.1l-0.6,2.7h-12.1l-2,9.3h10.2l-0.5,2.7
			C231.4,22.7,221.2,22.7,221.2,22.7z"/>
		<path class="st3" d="M239,8l5.2,10.7c1.7-1.8,3.4-3.5,5-5.3s3.3-3.6,5-5.3h4.6l-12.9,13.5c1.2,2.3,2.3,4.6,3.6,6.9
			c1.2,2.3,2.4,4.6,3.6,6.9h-4.7l-5.5-10.7c-1.7,1.8-3.4,3.6-5.1,5.4s-3.4,3.6-5.1,5.4H228l13.2-13.7c-1.2-2.3-2.3-4.5-3.5-6.8
			s-2.3-4.5-3.4-6.8h4.7V8z"/>
		<path class="st3" d="M270,8c1.3,0,2.4,0.1,3.4,0.4s1.9,0.7,2.5,1.2c0.7,0.5,1.1,1.2,1.4,2s0.3,1.7,0.1,2.7l-0.9,4.1
			c-0.2,1-0.6,1.9-1.2,2.6s-1.3,1.3-2.2,1.8c-0.9,0.5-1.9,0.8-3,1.1s-2.3,0.4-3.6,0.4h-5.7l-2.3,11h-4L260.2,8C260.2,8,270,8,270,8z
			 M273.5,14.4c0.3-1.2,0-2-0.8-2.7c-0.8-0.6-1.9-0.9-3.3-0.9h-5.7l-2.2,10.8h5.7c1.3,0,2.5-0.2,3.5-0.7c1.1-0.5,1.7-1.3,1.9-2.4
			L273.5,14.4z"/>
		<path class="st3" d="M281.1,22.7l-2.1,9.9h13.2l-0.5,2.7h-17.2L280.2,8h16.1l-0.6,2.7h-12.1l-2,9.3h10.2l-0.5,2.7
			C291.3,22.7,281.1,22.7,281.1,22.7z"/>
		<path class="st3" d="M313.7,21.4c-1.4,0.8-3.1,1.4-5.1,1.7c0.8,2,1.6,4.1,2.4,6.1s1.6,4.1,2.4,6.1h-4.3l-4.6-11.9h-5.6l-2.5,11.9
			h-4.1L298,8h11.5c1.3,0,2.5,0.1,3.5,0.4s1.9,0.6,2.5,1.2c0.7,0.5,1.2,1.2,1.4,2c0.3,0.8,0.3,1.7,0.1,2.8l-0.6,3.1
			C315.9,19.2,315.1,20.6,313.7,21.4z M299.4,20.7h7.3c1.4,0,2.6-0.2,3.6-0.7s1.6-1.3,1.9-2.5l0.7-3.1c0.3-1.2,0.1-2.1-0.7-2.7
			c-0.7-0.6-1.9-0.9-3.4-0.9h-7.3L299.4,20.7z"/>
		<path class="st3" d="M317.3,10.8l0.6-2.7H341l-0.6,2.7h-9.5l-5.1,24.6h-4.1l5.1-24.6H317.3z"/>
	</g>
</g>
</svg>
